# xmcd
#
# Track frame offsets:
#	150
#	11137
#	23559
#	31914
#	46405
#	55041
#	70581
#	84142
#	95329
#	105761
#	118713
#	131172
#	143235
#	156949
#	173436
#	184434
#	198393
#	209734
#
# Disc length: 3257 seconds
#
# Revision: 0
# Processed by: cddbd v1.5.2PL0 Copyright (c) Steve Scherf et al.
# Submitted via: EZCDAudioConverter 1.3.4.1
#
DISCID=eb0cb712
DTITLE=Davy Graham - A Scholar and A Gentleman 1/2
DYEAR=2009
DGENRE=Jazz
TTITLE0=Angi
TTITLE1=Sermonette
TTITLE2=Don't Stop The Carnival
TTITLE3=She Moved Through The Fair
TTITLE4=Take Five
TTITLE5=Blues For Betty
TTITLE6=Davy's Train Blues
TTITLE7=Better Git It In Your Soul
TTITLE8=Ain't Nobody's Business What I Do
TTITLE9=Don't Think Twice It's Alright
TTITLE10=Rock Me Baby
TTITLE11=Maajan (A Taste Of Tangier)
TTITLE12=Grooveyard
TTITLE13=Nottamun Town
TTITLE14=Rif Mountain
TTITLE15=Blue Monk
TTITLE16=Reynardine
TTITLE17=She Moved Thru' The Bizarre - Blue Raga [Live]
EXTD=
EXTT0=
EXTT1=
EXTT2=
EXTT3=
EXTT4=
EXTT5=
EXTT6=
EXTT7=
EXTT8=
EXTT9=
EXTT10=
EXTT11=
EXTT12=
EXTT13=
EXTT14=
EXTT15=
EXTT16=
EXTT17=
PLAYORDER=
